<?xml version="1.0" encoding="utf-8"?>
<!-- Generator: Adobe Illustrator 24.0.3, SVG Export Plug-In . SVG Version: 6.00 Build 0)  -->
<svg version="1.1" xmlns="http://www.w3.org/2000/svg" xmlns:xlink="http://www.w3.org/1999/xlink" x="0px" y="0px"
	 viewBox="0 0 289.458 289.462" style="enable-background:new 0 0 289.458 289.462;" xml:space="preserve">
<style type="text/css">
	.st0{fill:#08060F;}
	.st1{fill:#FFFFFF;}
	.st2{opacity:0.77;fill:url(#SVGID_1_);}
	.st3{opacity:0.91;}
</style>
<g id="black_circle">
	<circle class="st0" cx="144.729" cy="144.733" r="144.729"/>
</g>
<g id="eight_and_white">
	<g>
		<circle class="st1" cx="152.037" cy="122.113" r="79.01"/>
		<g>
			<path d="M163.697,155.761c-3.857,1.329-7.71,1.937-11.557,1.823c-3.846-0.112-7.44-0.904-10.781-2.377
				c-3.344-1.47-6.305-3.559-8.887-6.268c-2.582-2.705-4.538-5.988-5.867-9.845c-1.068-3.101-1.572-5.973-1.51-8.619
				c0.061-2.643,0.348-4.942,0.86-6.896c0.635-2.333,1.523-4.416,2.67-6.251c-1.147-0.62-2.229-1.431-3.251-2.434
				c-0.895-0.875-1.811-1.998-2.748-3.369c-0.936-1.369-1.744-3.036-2.422-5.003c-1.068-3.101-1.441-6.209-1.117-9.325
				c0.322-3.114,1.225-6.026,2.701-8.737c1.478-2.708,3.459-5.126,5.942-7.251c2.483-2.125,5.351-3.748,8.603-4.868
				c3.252-1.12,6.512-1.608,9.777-1.465c3.264,0.145,6.313,0.83,9.147,2.052c2.833,1.226,5.337,2.965,7.51,5.219
				c2.172,2.256,3.793,4.935,4.86,8.035c0.679,1.968,1.051,3.785,1.119,5.453c0.067,1.671,0.018,3.125-0.146,4.366
				c-0.188,1.42-0.505,2.713-0.947,3.881c1.956,0.766,3.9,1.873,5.839,3.318c1.605,1.225,3.268,2.853,4.983,4.884
				c1.715,2.032,3.107,4.599,4.176,7.7c1.329,3.857,1.811,7.648,1.442,11.37c-0.367,3.724-1.415,7.195-3.139,10.411
				c-1.728,3.219-4.069,6.056-7.03,8.513C170.963,152.537,167.555,154.432,163.697,155.761z M140.608,101.269
				c0.365,1.061,1.057,1.838,2.073,2.332c1.017,0.497,2.054,0.562,3.113,0.197c1.058-0.364,1.836-1.055,2.333-2.073
				c0.495-1.015,0.561-2.053,0.195-3.113c-0.364-1.058-1.056-1.836-2.072-2.332c-1.018-0.494-2.057-0.561-3.114-0.196
				c-1.06,0.365-1.836,1.057-2.331,2.073C140.309,99.173,140.242,100.212,140.608,101.269z M147.877,129.734
				c0.6,1.74,1.686,2.995,3.264,3.762c1.574,0.77,3.233,0.853,4.973,0.253c1.739-0.599,2.993-1.686,3.764-3.264
				c0.767-1.575,0.853-3.233,0.253-4.974c-0.6-1.739-1.688-2.992-3.263-3.762c-1.579-0.768-3.236-0.854-4.976-0.254
				c-1.739,0.599-2.994,1.688-3.761,3.264C147.361,126.339,147.278,127.995,147.877,129.734z"/>
		</g>
	</g>
</g>
<g id="light">
	<linearGradient id="SVGID_1_" gradientUnits="userSpaceOnUse" x1="42.3889" y1="42.3925" x2="247.0658" y2="247.0693">
		<stop  offset="0" style="stop-color:#FFFFFF"/>
		<stop  offset="0.0211" style="stop-color:#F9F9F9;stop-opacity:0.9789"/>
		<stop  offset="0.3875" style="stop-color:#979799;stop-opacity:0.6125"/>
		<stop  offset="0.6832" style="stop-color:#4F4E53;stop-opacity:0.3168"/>
		<stop  offset="0.894" style="stop-color:#222127;stop-opacity:0.106"/>
		<stop  offset="1" style="stop-color:#111016;stop-opacity:0"/>
	</linearGradient>
	<path class="st2" d="M289.453,144.26v0.47c0,79.93-64.79,144.73-144.72,144.73c-11.33,0-22.36-1.3-32.94-3.77
		c-64.07-14.9-111.79-72.36-111.79-140.96C0.003,64.8,64.793,0,144.733,0C224.503,0,289.203,64.55,289.453,144.26z"/>
</g>
<g id="shadow">
	<path class="st3" d="M289.453,144.26v0.47c0,79.93-64.79,144.73-144.72,144.73c-11.33,0-22.36-1.3-32.94-3.77
		c-1.027-0.24,33.954,6.337,68.316-5.265c29.017-9.797,46.633-29.175,60.027-43.908C269.718,203.977,283.092,168.456,289.453,144.26
		z"/>
</g>
</svg>
