<svg xmlns="http://www.w3.org/2000/svg" xmlns:xlink="http://www.w3.org/1999/xlink" viewBox="0 0 300 300">
  <defs>
    <style>
      .cls-1 {
        isolation: isolate;
      }

      .cls-2 {
        fill: #08060f;
      }

      .cls-3 {
        fill: #fff;
      }

      .cls-4 {
        opacity: 0.77;
        mix-blend-mode: hard-light;
        fill: url(#linear-gradient);
      }

      .cls-5 {
        opacity: 0.91;
      }
    </style>
    <linearGradient id="linear-gradient" x1="47.356" y1="48.282" x2="252.033" y2="252.959" gradientUnits="userSpaceOnUse">
      <stop offset="0" stop-color="#fff"/>
      <stop offset="0.074" stop-color="#ebebeb" stop-opacity="0.914"/>
      <stop offset="0.42" stop-color="#8f8e91" stop-opacity="0.528"/>
      <stop offset="0.7" stop-color="#4b4a4f" stop-opacity="0.244"/>
      <stop offset="0.9" stop-color="#212026" stop-opacity="0.068"/>
      <stop offset="1" stop-color="#111016" stop-opacity="0"/>
    </linearGradient>
  </defs>
  <title>8-ball-front</title>
  <g class="cls-1">
    <g id="_8ball_front" data-name="8ball front">
      <circle class="cls-2" cx="149.696" cy="150.623" r="144.729"/>
      <g>
        <circle class="cls-3" cx="157.005" cy="128.003" r="79.01"/>
        <path d="M168.665,161.65a32.33,32.33,0,0,1-11.557,1.824,28.581,28.581,0,0,1-10.781-2.376,27.445,27.445,0,0,1-8.887-6.269,26.577,26.577,0,0,1-5.867-9.845,24.791,24.791,0,0,1-1.51-8.619,30.124,30.124,0,0,1,.861-6.9,23.229,23.229,0,0,1,2.67-6.251,14.452,14.452,0,0,1-3.251-2.434,22.353,22.353,0,0,1-2.748-3.368,20.912,20.912,0,0,1-2.422-5,21.467,21.467,0,0,1-1.117-9.324,23.032,23.032,0,0,1,2.7-8.737A25.736,25.736,0,0,1,132.7,87.1a27.133,27.133,0,0,1,18.38-6.333,25.819,25.819,0,0,1,9.148,2.051,23.076,23.076,0,0,1,7.509,5.219,21.543,21.543,0,0,1,4.861,8.035,19.3,19.3,0,0,1,1.119,5.453,25.839,25.839,0,0,1-.147,4.366,17.316,17.316,0,0,1-.947,3.88,25.2,25.2,0,0,1,5.839,3.319,32.392,32.392,0,0,1,4.983,4.884,23.841,23.841,0,0,1,4.176,7.7,26.553,26.553,0,0,1,1.442,11.37,27.552,27.552,0,0,1-3.138,10.411,28.591,28.591,0,0,1-7.03,8.514A32.373,32.373,0,0,1,168.665,161.65Zm-23.09-54.491a4.1,4.1,0,1,0,.2-3.113A3.921,3.921,0,0,0,145.575,107.159Zm7.27,28.465a6.356,6.356,0,1,0,.254-4.974A6.265,6.265,0,0,0,152.845,135.624Z"/>
      </g>
      <path class="cls-4" d="M294.42,150.15v.47a144.5,144.5,0,1,1,0-.47Z"/>
      <path class="cls-5" d="M294.42,150.15v.47A144.83,144.83,0,0,1,116.76,291.58c-1.027-.24,33.954,6.337,68.316-5.265,29.016-9.8,46.633-29.175,60.027-43.908C274.685,209.867,288.06,174.346,294.42,150.15Z"/>
    </g>
  </g>
</svg>
