<svg id="pool_cue" data-name="pool cue" xmlns="http://www.w3.org/2000/svg" viewBox="0 0 49.268 3.316">
  <defs>
    <style>
      .cls-1 {
        fill: #e6e6e6;
      }

      .cls-2 {
        fill: #1a8ff1;
      }

      .cls-3 {
        fill: #e92525;
      }
    </style>
  </defs>
  <g>
    <path class="cls-1" d="M47.656,3.213a5.7,5.7,0,0,1-1.12.1L28.266,2.76Q14.481,2.339.706,1.924A2.352,2.352,0,0,1,.286,1.9c-.33-.077-.33-.4,0-.485.07-.013.26-.019.42-.026q13.77-.411,27.56-.83L46.536,0a4.819,4.819,0,0,1,1.12.1C49.806.615,49.806,2.7,47.656,3.213Z"/>
    <rect class="cls-2" y="1.391" width="0.479" height="0.533" rx="0.041"/>
    <path class="cls-3" d="M47.656,3.213a5.7,5.7,0,0,1-1.12.1c-1.19-.039-2.39-.071-3.58-.109l-1.21-.038c-1.15-.032-2.3-.071-3.45-.1l-1.23-.039-8.8-.268-6.89-1.1,6.89-1.1,8.79-.268,1.23-.038c1.15-.032,2.31-.07,3.46-.1L42.966.11c1.19-.038,2.38-.07,3.57-.108a4.819,4.819,0,0,1,1.12.1C49.806.615,49.806,2.7,47.656,3.213Z"/>
    <path class="cls-1" d="M45.6.027c-.42.019-.84.026-1.26.039a1.9,1.9,0,0,1,1.02,1.589,1.859,1.859,0,0,1-1.04,1.59l1.27.039a2.225,2.225,0,0,0,.77-1.629A2.251,2.251,0,0,0,45.6.027Z"/>
    <path class="cls-1" d="M42.966.11l-1.22.039a1.816,1.816,0,0,1,.9,1.506,1.843,1.843,0,0,1-.9,1.514l1.21.038a2.207,2.207,0,0,0,.69-1.552A2.182,2.182,0,0,0,42.966.11Z"/>
  </g>
</svg>
